<?xml version="1.0" encoding="UTF-8"?>
<svg id="_Варианты_СВГ" data-name="Варианты СВГ" xmlns="http://www.w3.org/2000/svg" viewBox="0 0 1029 142">
  <defs>
    <style>
      .cls-1 {
        fill: #fff;
      }

      .cls-2 {
        opacity: .5;
      }

      .cls-3 {
        fill: #e30b13;
      }
    </style>
  </defs>
  <g>
    <g>
      <path class="cls-1" d="m227.29,55.9l-10.96,6.03c-2.06-2.15-4.1-3.65-6.11-4.49-2.01-.84-4.37-1.25-7.07-1.25-4.93,0-8.91,1.47-11.95,4.41-3.04,2.94-4.56,6.7-4.56,11.29s1.46,8.11,4.39,10.93c2.93,2.83,6.78,4.24,11.54,4.24,5.89,0,10.48-2.01,13.76-6.03l10.38,7.11c-5.63,7.32-13.57,10.98-23.83,10.98-9.23,0-16.46-2.73-21.68-8.2-5.23-5.47-7.84-11.87-7.84-19.2,0-5.08,1.27-9.76,3.81-14.04,2.54-4.28,6.09-7.64,10.64-10.08,4.55-2.44,9.64-3.67,15.27-3.67,5.21,0,9.89,1.04,14.04,3.11,4.15,2.07,7.54,5.02,10.18,8.85Z"/>
      <path class="cls-1" d="m239.21,25.03h13.07v25.57c2.57-2.22,5.16-3.88,7.77-4.99,2.6-1.11,5.24-1.66,7.91-1.66,5.21,0,9.6,1.8,13.17,5.4,3.05,3.12,4.58,7.7,4.58,13.75v34.68h-12.98v-23.01c0-6.08-.29-10.19-.87-12.35-.58-2.15-1.57-3.76-2.97-4.82s-3.13-1.59-5.19-1.59c-2.67,0-4.96.88-6.87,2.65-1.91,1.77-3.24,4.18-3.98,7.24-.39,1.58-.58,5.18-.58,10.8v21.08h-13.07V25.03Z"/>
      <path class="cls-1" d="m303.58,23.68c2.31,0,4.29.84,5.94,2.51,1.65,1.67,2.48,3.7,2.48,6.08s-.82,4.35-2.45,6.01c-1.64,1.66-3.59,2.48-5.87,2.48s-4.34-.84-5.99-2.53c-1.65-1.69-2.48-3.74-2.48-6.15s.82-4.29,2.45-5.93c1.64-1.64,3.61-2.46,5.92-2.46Zm-6.58,21.61h13.17v52.48h-13.17v-52.48Z"/>
      <path class="cls-1" d="m322.12,45.29h13.17v5.38c2.99-2.52,5.69-4.27,8.12-5.25,2.42-.98,4.9-1.48,7.44-1.48,5.2,0,9.62,1.82,13.25,5.45,3.05,3.09,4.58,7.65,4.58,13.7v34.68h-13.02v-22.98c0-6.26-.28-10.42-.84-12.48-.56-2.06-1.54-3.62-2.94-4.7-1.4-1.08-3.12-1.61-5.17-1.61-2.66,0-4.95.89-6.86,2.67-1.91,1.78-3.23,4.25-3.97,7.4-.39,1.64-.58,5.19-.58,10.65v21.06h-13.17v-52.48Z"/>
      <path class="cls-1" d="m433.98,75.34h-42.3c.61,3.73,2.24,6.7,4.9,8.9,2.65,2.2,6.04,3.3,10.15,3.3,4.92,0,9.15-1.72,12.69-5.16l11.09,5.21c-2.77,3.92-6.08,6.83-9.94,8.71-3.86,1.88-8.44,2.82-13.75,2.82-8.23,0-14.94-2.6-20.11-7.79-5.18-5.19-7.77-11.7-7.77-19.51s2.58-14.66,7.74-19.95c5.16-5.29,11.63-7.93,19.41-7.93,8.26,0,14.98,2.65,20.16,7.93,5.18,5.29,7.77,12.28,7.77,20.96l-.05,2.51Zm-13.17-10.37c-.87-2.93-2.59-5.31-5.15-7.14-2.56-1.83-5.53-2.75-8.92-2.75-3.67,0-6.89,1.03-9.66,3.09-1.74,1.29-3.35,3.55-4.83,6.8h28.56Z"/>
      <path class="cls-1" d="m476.77,52.62l-8.15,8.15c-3.31-3.28-6.32-4.92-9.02-4.92-1.48,0-2.64.31-3.47.94-.84.63-1.25,1.41-1.25,2.34,0,.71.27,1.36.8,1.95.53.6,1.84,1.41,3.93,2.44l4.82,2.41c5.08,2.51,8.57,5.07,10.47,7.67,1.9,2.6,2.85,5.66,2.85,9.16,0,4.66-1.71,8.55-5.14,11.67-3.42,3.12-8.02,4.68-13.77,4.68-7.65,0-13.76-2.99-18.33-8.97l8.1-8.83c1.54,1.8,3.35,3.26,5.43,4.37,2.07,1.11,3.91,1.66,5.52,1.66,1.74,0,3.14-.42,4.2-1.25,1.06-.84,1.59-1.8,1.59-2.89,0-2.03-1.91-4-5.74-5.93l-4.44-2.22c-8.49-4.28-12.73-9.63-12.73-16.06,0-4.15,1.6-7.69,4.8-10.64,3.2-2.94,7.29-4.41,12.28-4.41,3.41,0,6.62.75,9.62,2.24s5.56,3.64,7.65,6.44Z"/>
      <path class="cls-1" d="m540.68,75.34h-42.3c.61,3.73,2.24,6.7,4.9,8.9,2.65,2.2,6.04,3.3,10.15,3.3,4.92,0,9.15-1.72,12.69-5.16l11.09,5.21c-2.77,3.92-6.08,6.83-9.94,8.71-3.86,1.88-8.44,2.82-13.75,2.82-8.23,0-14.94-2.6-20.11-7.79-5.18-5.19-7.77-11.7-7.77-19.51s2.58-14.66,7.74-19.95c5.16-5.29,11.63-7.93,19.41-7.93,8.26,0,14.99,2.65,20.16,7.93,5.18,5.29,7.77,12.28,7.77,20.96l-.05,2.51Zm-13.17-10.37c-.87-2.93-2.59-5.31-5.15-7.14-2.56-1.83-5.53-2.75-8.91-2.75-3.67,0-6.89,1.03-9.66,3.09-1.74,1.29-3.35,3.55-4.83,6.8h28.56Z"/>
    </g>
    <g>
      <path class="cls-3" d="m617.71,25.03h13.17v72.74h-13.17v-5.55c-2.57,2.44-5.15,4.2-7.73,5.28-2.59,1.08-5.39,1.62-8.41,1.62-6.78,0-12.64-2.63-17.59-7.89-4.95-5.26-7.42-11.79-7.42-19.61s2.39-14.74,7.18-19.92c4.79-5.18,10.6-7.77,17.44-7.77,3.15,0,6.1.6,8.86,1.78,2.76,1.19,5.32,2.97,7.66,5.35v-26.05Zm-13.84,31.06c-4.07,0-7.45,1.44-10.14,4.32-2.69,2.88-4.04,6.57-4.04,11.07s1.37,8.26,4.11,11.19c2.74,2.93,6.11,4.39,10.12,4.39s7.56-1.44,10.29-4.32c2.72-2.88,4.09-6.65,4.09-11.31s-1.36-8.26-4.09-11.09c-2.72-2.83-6.17-4.24-10.34-4.24Z"/>
      <path class="cls-3" d="m644.15,45.29h13.31v25.28c0,4.92.34,8.34,1.01,10.25.68,1.91,1.77,3.4,3.26,4.46,1.5,1.06,3.34,1.59,5.54,1.59s4.05-.52,5.58-1.57c1.53-1.04,2.67-2.58,3.41-4.61.55-1.51.82-4.74.82-9.7v-25.71h13.17v22.24c0,9.16-.72,15.44-2.17,18.81-1.77,4.12-4.37,7.28-7.81,9.48-3.44,2.2-7.81,3.3-13.12,3.3-5.76,0-10.41-1.29-13.96-3.86-3.55-2.57-6.05-6.16-7.5-10.76-1.03-3.18-1.54-8.97-1.54-17.36v-21.85Z"/>
      <path class="cls-3" d="m703.38,45.29h13.17v6.03c2.25-2.48,4.75-4.32,7.51-5.55,2.75-1.22,5.75-1.83,9-1.83s6.24.8,8.88,2.41c2.64,1.61,4.76,3.96,6.37,7.04,2.09-3.09,4.66-5.43,7.7-7.04,3.04-1.61,6.36-2.41,9.97-2.41s7.01.87,9.85,2.6c2.83,1.74,4.87,4,6.11,6.8,1.24,2.8,1.86,7.35,1.86,13.65v30.77h-13.27v-26.63c0-5.95-.74-9.98-2.22-12.08-1.48-2.11-3.7-3.16-6.66-3.16-2.25,0-4.27.64-6.05,1.93-1.78,1.29-3.11,3.06-3.98,5.33-.87,2.27-1.3,5.91-1.3,10.93v23.68h-13.27v-25.42c0-4.69-.35-8.1-1.04-10.2-.69-2.11-1.73-3.67-3.12-4.7-1.39-1.03-3.06-1.54-5.03-1.54-2.19,0-4.18.65-5.97,1.95-1.79,1.3-3.13,3.13-4.01,5.47-.89,2.35-1.33,6.05-1.33,11.09v23.35h-13.17v-52.48Z"/>
      <path class="cls-3" d="m809.41,45.29v5.79c2.38-2.38,4.95-4.16,7.72-5.35,2.77-1.19,5.72-1.78,8.88-1.78,6.85,0,12.67,2.59,17.46,7.77,4.79,5.18,7.19,11.82,7.19,19.92s-2.48,14.35-7.43,19.61c-4.95,5.26-10.82,7.89-17.61,7.89-3.02,0-5.84-.54-8.44-1.62-2.6-1.08-5.19-2.84-7.77-5.28v24.74h-13.07V45.29h13.07Zm13.84,10.8c-4.15,0-7.59,1.42-10.32,4.24-2.73,2.83-4.1,6.53-4.1,11.09s1.37,8.43,4.1,11.31c2.73,2.88,6.17,4.32,10.32,4.32s7.4-1.46,10.15-4.39c2.75-2.93,4.12-6.66,4.12-11.19s-1.35-8.19-4.05-11.07c-2.7-2.88-6.11-4.32-10.23-4.32Z"/>
      <path class="cls-3" d="m860.1,25.03h13.17v72.74h-13.17V25.03Z"/>
      <path class="cls-3" d="m890.37,23.68c2.31,0,4.29.84,5.94,2.51,1.65,1.67,2.48,3.7,2.48,6.08s-.82,4.35-2.45,6.01c-1.64,1.66-3.59,2.48-5.87,2.48s-4.34-.84-5.99-2.53c-1.65-1.69-2.48-3.74-2.48-6.15s.82-4.29,2.45-5.93c1.64-1.64,3.61-2.46,5.92-2.46Zm-6.58,21.61h13.17v52.48h-13.17v-52.48Z"/>
      <path class="cls-3" d="m908.92,45.29h13.17v5.38c2.99-2.52,5.69-4.27,8.12-5.25,2.42-.98,4.91-1.48,7.44-1.48,5.2,0,9.62,1.82,13.25,5.45,3.05,3.09,4.58,7.65,4.58,13.7v34.68h-13.02v-22.98c0-6.26-.28-10.42-.84-12.48s-1.54-3.62-2.94-4.7c-1.4-1.08-3.12-1.61-5.17-1.61-2.66,0-4.95.89-6.86,2.67-1.91,1.78-3.23,4.25-3.97,7.4-.38,1.64-.58,5.19-.58,10.65v21.06h-13.17v-52.48Z"/>
      <path class="cls-3" d="m1006.98,45.29h13.12v44.96c0,8.88-1.79,15.4-5.35,19.58-4.79,5.66-12.01,8.49-21.66,8.49-5.15,0-9.47-.64-12.98-1.93-3.5-1.29-6.46-3.18-8.88-5.67-2.41-2.49-4.2-5.52-5.35-9.09h14.52c1.29,1.48,2.94,2.6,4.97,3.35,2.03.76,4.42,1.13,7.19,1.13,3.54,0,6.38-.55,8.54-1.64,2.15-1.09,3.67-2.51,4.56-4.24.88-1.74,1.33-4.73,1.33-8.97-2.32,2.32-4.74,3.98-7.28,4.99-2.54,1.01-5.42,1.52-8.63,1.52-7.04,0-12.99-2.54-17.85-7.62-4.86-5.08-7.28-11.51-7.28-19.29,0-8.33,2.57-15.02,7.72-20.07,4.66-4.57,10.23-6.85,16.69-6.85,3.02,0,5.88.55,8.56,1.66,2.68,1.11,5.38,2.94,8.08,5.47v-5.79Zm-13.65,10.95c-4.15,0-7.57,1.39-10.27,4.17-2.7,2.78-4.05,6.28-4.05,10.49s1.38,7.96,4.15,10.76c2.77,2.8,6.24,4.2,10.42,4.2s7.45-1.37,10.11-4.1c2.65-2.73,3.98-6.32,3.98-10.76s-1.34-7.93-4-10.66c-2.67-2.73-6.11-4.1-10.32-4.1Z"/>
    </g>
  </g>
  <g>
    <path class="cls-3" d="m37.84,122.66l-3.75,4.08-5.98,6.49c-.28.31-.59.57-.94.76-.21.12-.43.22-.66.29,0,0-.01,0-.02.01-.21.06-.44.11-.66.13-.14.02-.28.03-.42.03-.86,0-1.71-.3-2.4-.91-.32-.28-.57-.6-.76-.95-.12-.21-.22-.43-.29-.66-.04-.12-.07-.24-.09-.36-.03-.13-.05-.25-.06-.38-.05-.44-.01-.9.11-1.34.06-.19.12-.37.21-.55.05-.11.11-.22.17-.32.06-.1.12-.19.19-.28.06-.1.13-.18.21-.27l.16-.18,3.34-3.63,3.32-3.61c2.5.79,5.17,1.33,8,1.61.1.02.21.03.32.04Z"/>
    <path class="cls-3" d="m142.5,8.88l-43.67,47.47-3.17,3.45c-.32-.53-.65-1.05-1.01-1.55-.2-.3-.41-.6-.63-.89-.89-1.19-1.86-2.3-2.9-3.32l3.06-3.32L137.17,3.98c.84-.91,2.05-1.3,3.19-1.13.7.09,1.37.39,1.93.91,1.47,1.36,1.56,3.65.21,5.12Z"/>
  </g>
  <g>
    <path class="cls-3" d="m29.52,121.01c2.5.79,5.17,1.33,8,1.61l-3.62,4.08-5.79,6.53c-.28.31-.59.57-.94.76-.21.12-.43.22-.66.29,0,0-.01,0-.02.01-.21.06-.44.11-.66.13-.14.02-.28.03-.42.03-.86,0-1.71-.3-2.4-.91-.32-.28-.57-.6-.76-.95-.12-.21-.22-.43-.29-.66-.04-.12-.07-.24-.09-.36-.03-.13-.05-.25-.06-.38-.05-.44-.01-.9.11-1.34.06-.19.12-.37.21-.55.05-.11.11-.22.17-.32.06-.1.12-.19.19-.28.06-.1.13-.18.21-.27l.16-.18,3.25-3.66,3.22-3.64h.01c.06.03.12.04.18.06Z"/>
    <path class="cls-3" d="m140,7.15l-42.27,47.63-3.08,3.47c-.2-.3-.41-.6-.63-.89-.89-1.19-1.86-2.3-2.9-3.32-.43-.42-.86-.83-1.31-1.23l3-3.38L134.59,2.35c1.32-1.49,3.52-1.71,5.18-.43.29.22,2.35,1.55,2.52,1.84.83,1.32-1.2,2.17-2.29,3.39Z"/>
  </g>
  <g>
    <path class="cls-1" d="m105.22,73.78s0-.1-.02-.15c-.12-.7-.24-1.39-.39-2.07-1.17-5.86-3.18-10.96-5.98-15.21-.35-.54-.71-1.06-1.1-1.57-.02-.04-.05-.08-.08-.12-1.07-1.43-2.23-2.74-3.47-3.94-.44-.45-.9-.88-1.37-1.29-7.1-6.28-16.11-9.45-23.06-11.04-1.21-.28-2.45-.54-3.69-.8-5.69-1.18-11.07-2.29-15.1-5.65-.23-.19-.46-.39-.69-.59-.82-.73-1.75-1.55-2.93-2.12-2.2-1.08-4.65-.86-6.24.54-.69.61-1.13,1.32-1.38,2.06-1.83-.87-3.93-1.21-6.04-.61-1.9.55-3.49,1.93-4.36,3.81-.2.44-.36.89-.47,1.36-1.11-.33-2.35-.46-3.65-.14-3.06.74-5.26,3.67-5.89,7.83-.07.48-.16.95-.24,1.39-1.02,5.11-3,8.05-5.99,12.5-.52.78-1.07,1.6-1.64,2.47-5,7.6-7.9,14.16-9.12,20.62-2.09,11.02.79,22.86,7.69,31.69,4.23,5.41,9.69,9.41,16.1,11.84.03.01.06.02.09.03,2.43.92,5,1.62,7.7,2.08.06.01.13.02.19.04,1.38.22,2.79.39,4.23.5,1.34.1,2.69.15,4.04.15.35,0,.71,0,1.06-.02h.01c.11.01.21.01.31,0,4.05-.1,8.1-.62,12.09-1.5.29-.05.57-.12.85-.19h.01c14.85-3.42,28.63-11.48,37.1-19.47,5.46-5.15,8.82-9.96,10.56-15.12.86-2.54,1.36-5.27,1.48-8.24.04-.8.05-1.62.03-2.46-.05-2.09-.26-4.28-.64-6.61Zm-4.5,13.53c-.18.8-.4,1.58-.65,2.33-1.5,4.44-4.48,8.66-9.38,13.28-6.21,5.86-15.45,11.77-25.8,15.61-.54.2-1.08.39-1.62.58h-.01c-4.48,1.55-9.14,2.71-13.84,3.31-.21.02-.42.05-.62.07h-.01c-3.38.39-6.77.49-10.13.24-.28-.02-.55-.04-.82-.07-.11-.01-.22-.02-.32-.04-2.83-.28-5.5-.82-8-1.61-.06-.02-.12-.03-.18-.06h-.01c-6.36-2.04-11.63-5.71-15.75-10.98-6.12-7.82-8.66-18.31-6.82-28.06,1.11-5.86,3.8-11.9,8.46-18.99.56-.85,1.1-1.66,1.61-2.42,3.06-4.55,5.48-8.14,6.67-14.14.1-.52.2-1.05.28-1.6.26-1.68,1.06-3.77,2.48-4.12,1.1-.26,2.5.55,3.84,1.4.84.54,1.94.46,2.7-.2.76-.66.99-1.74.57-2.65-.31-.67-.28-1.52.06-2.27.18-.4.62-1.1,1.49-1.35,1.94-.55,4.22.84,5.47,2.51.66.88,1.86,1.16,2.84.65.98-.5,1.46-1.64,1.13-2.69-.75-2.37-.32-2.83-.27-2.88.12-.11.67-.16,1.27.13.63.31,1.26.87,1.93,1.45.25.23.51.45.77.67,4.91,4.09,11.1,5.37,17.09,6.61,1.2.25,2.41.5,3.59.77,6.39,1.47,14.67,4.36,21.07,10.02.45.4.88.81,1.31,1.23,1.04,1.02,2.01,2.13,2.9,3.32.22.29.43.59.63.89.36.5.69,1.02,1.01,1.55,2.45,4.04,4.15,8.93,5.08,14.56.04.27.09.54.11.8.12.74.22,1.47.28,2.18h0c.28,2.65.29,5.07.03,7.32-.1.91-.25,1.79-.44,2.64h0Z"/>
    <path class="cls-1" d="m28.69,60.56c-.36.44-.88.67-1.41.67-.4,0-.8-.13-1.14-.4-.77-.63-.89-1.77-.27-2.54,2.57-3.17,3.61-6.79,2.74-9.45-.32-.94.2-1.97,1.15-2.28s1.97.2,2.28,1.15c1.28,3.87.03,8.68-3.35,12.85Z"/>
    <path class="cls-1" d="m42.06,55.82c-.08.01-.16.02-.25.02-.89,0-1.66-.66-1.79-1.56-.23-1.64-1.77-6.52-2.95-8.63-.49-.87-.18-1.97.69-2.46s1.97-.18,2.46.69c1.35,2.41,3.08,7.7,3.39,9.9.13.99-.56,1.9-1.55,2.04Z"/>
    <path class="cls-1" d="m58.82,48.85c-.27.72-.96,1.16-1.69,1.16-.21,0-.43-.03-.64-.12-.39-.14-.79-.27-1.21-.4-2.42-.77-5.72-1.81-8.02-6.61-.44-.9-.06-1.98.85-2.42.9-.43,1.98-.05,2.41.85,1.62,3.39,3.68,4.04,5.85,4.73.49.15.96.3,1.41.47.93.36,1.4,1.41,1.04,2.34Z"/>
    <path class="cls-1" d="m63.64,81.54c-.23.59-.51,1.15-.82,1.68t-.01.01c-.84,1.44-1.94,2.67-3.22,3.63h0c-2.18,1.66-4.86,2.58-7.63,2.58-1.55,0-3.13-.29-4.66-.91-.92-.37-1.37-1.42-1-2.35.37-.93,1.42-1.38,2.35-1.01,4.58,1.84,9.8-.39,11.63-4.97.37-.93,1.43-1.38,2.35-1.01.93.37,1.38,1.43,1.01,2.35Z"/>
    <path class="cls-1" d="m34.43,89.69c-2.35,1.02-5.21-.39-6.41-3.15-1.2-2.76-.27-5.82,2.07-6.83,2.34-1.02,5.21.39,6.41,3.15,1.2,2.76.27,5.82-2.07,6.83Z"/>
    <path class="cls-1" d="m75.83,70.66c-.2,1.65-1.1,3.06-2.55,3.69-.36.15-.73.25-1.11.3-.54.06-1.09.02-1.63-.13-1.51-.4-2.92-1.61-3.67-3.33-1.2-2.76-.27-5.82,2.07-6.83,2.34-1.02,5.21.39,6.41,3.15.17.39.3.78.37,1.17.16.67.19,1.35.11,1.98Z"/>
    <g class="cls-2">
      <path class="cls-1" d="m82.76,81.47c-2.84,1.57-5.89,1.76-7.61.63-.36-.22-.67-.52-.89-.87-.05-.06-.09-.12-.13-.19-1.21-2.2.68-5.57,4.23-7.53,1.31-.72,2.65-1.15,3.89-1.29.7-.09,1.37-.08,1.97.02,1.26.19,2.25.76,2.77,1.7,1.22,2.2-.68,5.57-4.23,7.53Z"/>
    </g>
    <g class="cls-2">
      <path class="cls-1" d="m35.24,101.59c-3.78,1.46-7.58.75-8.49-1.59-.91-2.34,1.42-5.43,5.21-6.9,3.78-1.46,7.58-.75,8.49,1.59.91,2.35-1.43,5.43-5.21,6.9Z"/>
    </g>
  </g>
  <path class="cls-3" d="m38.65,140.22c-1.01,0-2.01-.42-2.73-1.24-1.31-1.51-1.16-3.79.35-5.11L163.3,22.04c1.51-1.31,2.54-2.08,5.5,1.13,1.35,1.47,1.16,3.79-.35,5.11l-127.42,111.06c-.69.6-1.53.89-2.38.89Z"/>
  <path class="cls-3" d="m165.65,26.03l-59.79,54.36-4.7,4.27-37.89,34.45h-.01l-7.43,6.76-14.69,13.35-.06.06c-.19.17-.39.32-.6.44-.16.1-.33.18-.5.25-.11.04-.22.08-.34.11-.11.03-.22.06-.34.08-.11.02-.22.04-.33.05-.1.01-.21.01-.32.01-.14,0-.29-.01-.43-.03-.23-.02-.45-.07-.67-.14t-.02-.01c-.11-.03-.21-.07-.32-.11-.05-.03-.09-.05-.14-.07-.08-.04-.16-.08-.24-.13-.1-.05-.19-.11-.28-.18-.1-.07-.2-.15-.3-.24-.1-.08-.19-.17-.28-.27-.02-.02-.03-.04-.05-.06-.1-.1-.18-.21-.26-.33-.21-.31-.37-.65-.48-1-.04-.13-.07-.27-.1-.41-.02-.13-.04-.25-.04-.38,0-.05-.02-.11-.02-.16,0-.18.01-.36.03-.53,0,0,0,0,0,0,.03-.23.08-.45.16-.67.03-.12.08-.24.13-.36.05-.11.11-.23.18-.34.06-.11.13-.22.21-.33.14-.19.3-.37.48-.53l.06-.05,7.15-6.51h.01l5.36-4.88h.01l52.05-47.33,3.96-3.6,55.97-50.88c1.48-1.35,4.47-.48,6.06.74.82.63,1.12,1.2,1.28,1.58.57,1.37-1.3,1.98-2.46,3.03Z"/>
</svg>